<svg xmlns="http://www.w3.org/2000/svg" viewBox="0 0 51.985 7.806" height="30" width="197"><path d="M6.005 2.68q0 .5-.15.9-.15.388-.413.677-.258.3-.6.5-.35.202-.754.33-.398.124-.827.186-.43.057-.842.062v2.408H0Q0 6.54.005 5.367.01 4.194.02 3q.01-.63.005-1.26Q.02 1.1.052.468.713.272 1.375.174q.66-.1 1.365-.1.398 0 .796.067.398.062.76.202.367.14.677.35.315.207.543.496.227.3.357.66.134.367.134.827zm-2.294.176q0-.336-.207-.522-.202-.2-.527-.2-.1 0-.227.02-.114.016-.217.04l-.062 1.5q.072.01.14.01.067 0 .14 0 .186 0 .357-.062.176-.062.3-.176.134-.12.212-.274.083-.16.083-.357zM13.317.24l-.372 7.007-2.708.248L8.8 3.744l-.227 3.824H6.238L6.424.24 9.007.117l1.788 3.72.083-3.514zm6.65 6.357q-.243.305-.6.532-.357.227-.765.377-.408.15-.837.222-.43.078-.816.078-.75 0-1.38-.27-.63-.27-1.1-.74-.455-.475-.713-1.116-.258-.64-.258-1.38 0-.563.13-1.1.13-.543.367-1.018.243-.48.6-.878.346-.403.785-.692.44-.3.96-.45.522-.16 1.116-.16.222 0 .475.02.253.016.5.062.253.04.5.12.238.078.434.2L19.2 2.368q-.3-.1-.6-.145-.305-.04-.6-.04-.413 0-.775.13-.357.124-.625.362-.264.238-.42.58-.155.34-.155.77 0 .27.072.522.072.248.217.444.15.2.367.3.222.12.512.12.196 0 .403-.052.212-.052.362-.176l.02-.403-1.24-.02.062-1.55q.77-.026 1.54-.04.77-.02 1.55-.052z" fill="#ffde16"/><g fill="#fff"><path d="M27.418 3.638q0 .517-.12 1-.12.477-.347.898-.222.42-.546.773-.318.347-.722.597-.398.25-.87.392-.472.136-1 .136-.512 0-.978-.13-.46-.13-.864-.364-.404-.24-.733-.568-.324-.335-.557-.74-.227-.41-.358-.875-.125-.466-.125-.972 0-.495.12-.966.12-.477.34-.898.227-.42.546-.773.318-.352.71-.608.398-.256.858-.398.46-.142.972-.142.824 0 1.5.256.682.256 1.16.733.483.472.745 1.148.267.67.267 1.5zm-2.524.148q0-.244-.074-.472-.068-.233-.205-.41-.136-.182-.34-.3-.2-.114-.46-.114-.267 0-.477.097-.2.097-.364.267-.148.165-.227.392-.08.222-.08.472 0 .24.068.477.068.24.205.432.136.193.335.313.205.12.472.12.267 0 .477-.102.216-.108.364-.284.148-.182.227-.415.08-.233.08-.483z"/><path d="M32.922.385l-.3 2.18q-.15-.04-.3-.057-.15-.016-.3-.016-.382 0-.73.103-.346.098-.615.305-.264.207-.424.517-.155.3-.155.73 0 .27.083.465.088.196.243.326.155.13.367.2.212.062.465.062.2 0 .398-.04.207-.04.408-.1.202-.067.393-.155.2-.088.35-.18l-.207 2.43q-.202.103-.44.186-.233.078-.48.14-.248.057-.496.088-.248.03-.475.03-.656 0-1.225-.243-.568-.243-.987-.667-.42-.424-.66-.997-.238-.58-.238-1.245 0-.884.253-1.664.253-.785.744-1.375.5-.6 1.214-.93.73-.34 1.674-.34.357 0 .73.057.377.057.698.212zM38.152.2q-.03.486-.057.96-.026.475-.067.96l-2.2.114-.052.65h1.54l-.114 1.602-1.55.052-.052.754h2.2q-.03.568-.067 1.132-.03.558-.057 1.12l-4.455.103L33.387.2z"/><path d="M44.84 7.207l-2.563.33-.3-1.168H40.8l-.258 1.168-2.635-.258L39.95.396 42.823.25zM41.78 4.79L41.387 3l-.382 1.798zM51.986.24l-.372 7.007-2.708.248-1.447-3.752-.227 3.824h-2.325L45.092.24l2.584-.124 1.788 3.72.083-3.514z"/></g></svg>